<svg width="32" height="32" viewBox="0 0 32 32" fill="none" xmlns="http://www.w3.org/2000/svg">
<circle cx="16" cy="16" r="16" fill="#FEC3B9"/>
<path d="M9 24C8.45 24 7.979 23.8043 7.587 23.413C7.19567 23.021 7 22.55 7 22V8C7 7.45 7.19567 6.979 7.587 6.587C7.979 6.19567 8.45 6 9 6H23C23.55 6 24.021 6.19567 24.413 6.587C24.8043 6.979 25 7.45 25 8V13.675C24.6833 13.525 24.3583 13.4 24.025 13.3C23.6917 13.2 23.35 13.125 23 13.075V8H9V20.85C9.83333 20.05 10.7793 19.4 11.838 18.9C12.896 18.4 14.0417 18.1083 15.275 18.025C15.1917 18.3417 15.125 18.675 15.075 19.025C15.025 19.375 15 19.7167 15 20.05C14.25 20.1333 13.5417 20.3167 12.875 20.6C12.2083 20.8833 11.5833 21.2667 11 21.75V22H15.3C15.4167 22.3667 15.55 22.7167 15.7 23.05C15.85 23.3833 16.0333 23.7 16.25 24H9ZM16 16H16.25C16.6333 15.45 17.0877 14.9623 17.613 14.537C18.1377 14.1123 18.7167 13.775 19.35 13.525C19.4 13.3583 19.4377 13.1917 19.463 13.025C19.4877 12.8583 19.5 12.6833 19.5 12.5C19.5 11.5333 19.1583 10.7083 18.475 10.025C17.7917 9.34167 16.9667 9 16 9C15.0333 9 14.2083 9.34167 13.525 10.025C12.8417 10.7083 12.5 11.5333 12.5 12.5C12.5 13.4667 12.8417 14.2917 13.525 14.975C14.2083 15.6583 15.0333 16 16 16ZM16 14C15.5833 14 15.2293 13.854 14.938 13.562C14.646 13.2707 14.5 12.9167 14.5 12.5C14.5 12.0833 14.646 11.7293 14.938 11.438C15.2293 11.146 15.5833 11 16 11C16.4167 11 16.7707 11.146 17.062 11.438C17.354 11.7293 17.5 12.0833 17.5 12.5C17.5 12.9167 17.354 13.2707 17.062 13.562C16.7707 13.854 16.4167 14 16 14ZM21 25L20.7 23.5C20.5 23.4167 20.3127 23.3293 20.138 23.238C19.9627 23.146 19.7833 23.0333 19.6 22.9L18.15 23.35L17.15 21.65L18.3 20.65C18.2667 20.4167 18.25 20.2 18.25 20C18.25 19.8 18.2667 19.5833 18.3 19.35L17.15 18.35L18.15 16.65L19.6 17.1C19.7833 16.9667 19.9627 16.854 20.138 16.762C20.3127 16.6707 20.5 16.5833 20.7 16.5L21 15H23L23.3 16.5C23.5 16.5833 23.6877 16.675 23.863 16.775C24.0377 16.875 24.2167 17 24.4 17.15L25.85 16.65L26.85 18.4L25.7 19.4C25.7333 19.6 25.75 19.8083 25.75 20.025C25.75 20.2417 25.7333 20.45 25.7 20.65L26.85 21.65L25.85 23.35L24.4 22.9C24.2167 23.0333 24.0377 23.146 23.863 23.238C23.6877 23.3293 23.5 23.4167 23.3 23.5L23 25H21ZM22 22C22.55 22 23.021 21.8043 23.413 21.413C23.8043 21.021 24 20.55 24 20C24 19.45 23.8043 18.979 23.413 18.587C23.021 18.1957 22.55 18 22 18C21.45 18 20.979 18.1957 20.587 18.587C20.1957 18.979 20 19.45 20 20C20 20.55 20.1957 21.021 20.587 21.413C20.979 21.8043 21.45 22 22 22Z" fill="#F15E38"/>
</svg>
