<svg width="32" height="32" viewBox="0 0 32 32" fill="none" xmlns="http://www.w3.org/2000/svg">
<circle cx="16" cy="16" r="16" fill="#FEC3B9"/>
<path d="M7 22C6.45 22 5.97933 21.8043 5.588 21.413C5.196 21.021 5 20.55 5 20C5 19.45 5.196 18.979 5.588 18.587C5.97933 18.1957 6.45 18 7 18H7.263C7.33767 18 7.41667 18.0167 7.5 18.05L12.05 13.5C12.0167 13.4167 12 13.3373 12 13.262V13C12 12.45 12.196 11.979 12.588 11.587C12.9793 11.1957 13.45 11 14 11C14.55 11 15.021 11.1957 15.413 11.587C15.8043 11.979 16 12.45 16 13C16 13.0333 15.9833 13.2 15.95 13.5L18.5 16.05C18.5833 16.0167 18.6627 16 18.738 16H19.262C19.3373 16 19.4167 16.0167 19.5 16.05L23.05 12.5C23.0167 12.4167 23 12.3373 23 12.262V12C23 11.45 23.1957 10.9793 23.587 10.588C23.979 10.196 24.45 10 25 10C25.55 10 26.021 10.196 26.413 10.588C26.8043 10.9793 27 11.45 27 12C27 12.55 26.8043 13.0207 26.413 13.412C26.021 13.804 25.55 14 25 14H24.738C24.6627 14 24.5833 13.9833 24.5 13.95L20.95 17.5C20.9833 17.5833 21 17.6627 21 17.738V18C21 18.55 20.8043 19.0207 20.413 19.412C20.021 19.804 19.55 20 19 20C18.45 20 17.9793 19.804 17.588 19.412C17.196 19.0207 17 18.55 17 18V17.738C17 17.6627 17.0167 17.5833 17.05 17.5L14.5 14.95C14.4167 14.9833 14.3373 15 14.262 15H14C13.9667 15 13.8 14.9833 13.5 14.95L8.95 19.5C8.98333 19.5833 9 19.6627 9 19.738V20C9 20.55 8.804 21.021 8.412 21.413C8.02067 21.8043 7.55 22 7 22Z" fill="#F15E38"/>
</svg>
