<svg width="68" height="74" viewBox="0 0 68 74" fill="none" xmlns="http://www.w3.org/2000/svg">
<rect width="68" height="74" fill="#E5E5E5"/>
<rect width="1440" height="1024" transform="translate(-474 -507)" fill="#FCFCFC"/>
<rect x="-374" y="-50" width="816" height="342" rx="10" fill="white"/>
<path d="M67.3333 23.3333V53.3333C67.3333 57 64.3333 60 60.6666 60H14L0.666626 73.3333V13.3333C0.666626 9.66667 3.66663 6.66667 7.33329 6.66667H41C40.6666 7.66667 40.6666 9 40.6666 10C40.6666 11 40.6666 12.3333 41 13.3333H7.33329V53.3333H60.6666V26.3333C63 26 65.3333 24.6667 67.3333 23.3333ZM47.3333 10C47.3333 15.6667 51.6666 20 57.3333 20C63 20 67.3333 15.6667 67.3333 10C67.3333 4.33333 63 0 57.3333 0C51.6666 0 47.3333 4.33333 47.3333 10Z" fill="#575757"/>
</svg>
