<svg width="32" height="32" viewBox="0 0 32 32" fill="none" xmlns="http://www.w3.org/2000/svg">
<circle cx="16" cy="16" r="16" fill="#FEC3B9"/>
<path d="M9 7C8.46957 7 7.96086 7.21071 7.58579 7.58579C7.21071 7.96086 7 8.46957 7 9V23C7 23.5304 7.21071 24.0391 7.58579 24.4142C7.96086 24.7893 8.46957 25 9 25H23C23.5304 25 24.0391 24.7893 24.4142 24.4142C24.7893 24.0391 25 23.5304 25 23V20.72C25.3023 20.5455 25.5536 20.2949 25.7291 19.9932C25.9045 19.6914 25.9979 19.349 26 19V13C25.9979 12.651 25.9045 12.3086 25.7291 12.0068C25.5536 11.7051 25.3023 11.4545 25 11.28V9C25 8.46957 24.7893 7.96086 24.4142 7.58579C24.0391 7.21071 23.5304 7 23 7H9ZM9 9H23V11H17C16.4696 11 15.9609 11.2107 15.5858 11.5858C15.2107 11.9609 15 12.4696 15 13V19C15 19.5304 15.2107 20.0391 15.5858 20.4142C15.9609 20.7893 16.4696 21 17 21H23V23H9V9ZM17 13H24V19H17V13ZM20 14.5C19.6022 14.5 19.2206 14.658 18.9393 14.9393C18.658 15.2206 18.5 15.6022 18.5 16C18.5 16.3978 18.658 16.7794 18.9393 17.0607C19.2206 17.342 19.6022 17.5 20 17.5C20.3978 17.5 20.7794 17.342 21.0607 17.0607C21.342 16.7794 21.5 16.3978 21.5 16C21.5 15.6022 21.342 15.2206 21.0607 14.9393C20.7794 14.658 20.3978 14.5 20 14.5Z" fill="#F15E38"/>
</svg>
